# xmcd
#
# Track frame offsets:
#	150
#	12155
#	29527
#	46132
#	64065
#	83445
#	99310
#	109925
#	124577
#	136612
#	151720
#	170180
#	188015
#	201812
#	213410
#	222800
#	234877
#	247407
#
# Disc length: 3468 seconds
#
# Revision: 0
# Processed by: cddbd v1.5.2PL0 Copyright (c) Steve Scherf et al.
# Submitted via: audiograbber 1.83.01
#
DISCID=ea0d8a12
DTITLE=Various Artist - CDXMAS 1002
DYEAR=1992
DGENRE=Country
TTITLE0=Doug Stone - All I Want For Christmas Is You
TTITLE1=Vince Vance and The Valiants - All I Want For Christmas Is You
TTITLE2=Doug Wayne - Almost Time For Christmas
TTITLE3=Clinton Gregory - Christmas In Virginia
TTITLE4=Susie Luchsinge- - Christmas Medley
TTITLE5=The Bellamy Brothers - Havin' A Tropical Christmas
TTITLE6=Alan Jackson - Holly Jolly Christmas
TTITLE7=The  Bellamy Brothers - It's So Close To Christmas
TTITLE8=The Geezinslaws - Lighten Up It's Christmas
TTITLE9=Mark Johnson - My Family Christmas Tree
TTITLE10=Doug Stone - Sailing Home For Christmas
TTITLE11=The Royal Court Of China - Santa Claus Is Back In Town
TTITLE12=Caroling Cattle - Santa Cow
TTITLE13=Travis Tritt - Santa Looked A Lot Like Daddy
TTITLE14=Riders In The Sky - Sidemeats Christmas Goose
TTITLE15=Garth Brooks - The Old Man's Back In Town
TTITLE16=Suzy Bogguss - TwoStep Round The Christmas Tree
TTITLE17=Travis Tritt - Winter Wonderland
EXTD=
EXTT0=
EXTT1=
EXTT2=
EXTT3=
EXTT4=
EXTT5=
EXTT6=
EXTT7=
EXTT8=
EXTT9=
EXTT10=
EXTT11=
EXTT12=
EXTT13=
EXTT14=
EXTT15=
EXTT16=
EXTT17=
PLAYORDER=
